<svg width="383" height="57" viewBox="0 0 383 57" fill="none" xmlns="http://www.w3.org/2000/svg">
<path d="M15.1392 56H0.78125L19.4304 0.727271H37.2159L55.8651 56H41.5071L28.5256 14.6534H28.0938L15.1392 56ZM13.223 34.2472H43.2344V44.3949H13.223V34.2472ZM61.8161 56V0.727271H75.0135V21.6435H75.2834C75.8232 20.384 76.5878 19.1695 77.5774 18C78.585 16.8305 79.8625 15.8769 81.4098 15.1392C82.9751 14.3835 84.8464 14.0057 87.0234 14.0057C89.9022 14.0057 92.5921 14.7614 95.093 16.2727C97.612 17.7841 99.6451 20.1141 101.192 23.2628C102.74 26.4115 103.513 30.4238 103.513 35.2997C103.513 39.9957 102.767 43.9271 101.273 47.0938C99.7981 50.2604 97.8009 52.6354 95.282 54.2188C92.781 55.8021 90.0012 56.5938 86.9425 56.5938C84.8554 56.5938 83.0471 56.2519 81.5178 55.5682C79.9884 54.8845 78.7019 53.9848 77.6584 52.8693C76.6328 51.7538 75.8411 50.5573 75.2834 49.2798H74.8786V56H61.8161ZM74.7436 35.2727C74.7436 37.5038 75.0405 39.447 75.6342 41.1023C76.246 42.7576 77.1186 44.044 78.2521 44.9616C79.4036 45.8613 80.7801 46.3111 82.3814 46.3111C84.0007 46.3111 85.3771 45.8613 86.5107 44.9616C87.6442 44.044 88.4988 42.7576 89.0746 41.1023C89.6683 39.447 89.9652 37.5038 89.9652 35.2727C89.9652 33.0417 89.6683 31.1075 89.0746 29.4702C88.4988 27.8329 87.6442 26.5644 86.5107 25.6648C85.3951 24.7651 84.0187 24.3153 82.3814 24.3153C80.7621 24.3153 79.3857 24.7562 78.2521 25.6378C77.1186 26.5194 76.246 27.7789 75.6342 29.4162C75.0405 31.0535 74.7436 33.0057 74.7436 35.2727ZM129.78 56.7827C125.426 56.7827 121.684 55.892 118.553 54.1108C115.44 52.3116 113.038 49.8106 111.347 46.608C109.674 43.3873 108.837 39.6539 108.837 35.4077C108.837 31.1435 109.674 27.41 111.347 24.2074C113.038 20.9867 115.44 18.4858 118.553 16.7045C121.684 14.9053 125.426 14.0057 129.78 14.0057C134.134 14.0057 137.868 14.9053 140.98 16.7045C144.111 18.4858 146.513 20.9867 148.186 24.2074C149.878 27.41 150.723 31.1435 150.723 35.4077C150.723 39.6539 149.878 43.3873 148.186 46.608C146.513 49.8106 144.111 52.3116 140.98 54.1108C137.868 55.892 134.134 56.7827 129.78 56.7827ZM129.861 46.8239C131.444 46.8239 132.785 46.3381 133.882 45.3665C134.98 44.3949 135.817 43.0455 136.392 41.3182C136.986 39.5909 137.283 37.5937 137.283 35.3267C137.283 33.0237 136.986 31.0085 136.392 29.2812C135.817 27.554 134.98 26.2045 133.882 25.233C132.785 24.2614 131.444 23.7756 129.861 23.7756C128.224 23.7756 126.838 24.2614 125.705 25.233C124.589 26.2045 123.735 27.554 123.141 29.2812C122.565 31.0085 122.277 33.0237 122.277 35.3267C122.277 37.5937 122.565 39.5909 123.141 41.3182C123.735 43.0455 124.589 44.3949 125.705 45.3665C126.838 46.3381 128.224 46.8239 129.861 46.8239ZM184.23 38.1065V14.5455H197.4V56H184.824V48.2812H184.392C183.474 50.8182 181.909 52.8333 179.696 54.3267C177.501 55.8021 174.847 56.5398 171.734 56.5398C168.909 56.5398 166.426 55.892 164.285 54.5966C162.144 53.3011 160.48 51.4929 159.292 49.1719C158.105 46.8329 157.502 44.098 157.484 40.9673V14.5455H170.681V38.3764C170.699 40.6255 171.293 42.3977 172.463 43.6932C173.632 44.9886 175.225 45.6364 177.24 45.6364C178.553 45.6364 179.732 45.3485 180.775 44.7727C181.837 44.179 182.673 43.3243 183.285 42.2088C183.915 41.0753 184.23 39.7079 184.23 38.1065ZM229.2 14.5455V24.2614H203.048V14.5455H229.2ZM208.526 4.61364H221.724V42.9645C221.724 43.7741 221.85 44.4309 222.102 44.9347C222.371 45.4205 222.758 45.7713 223.262 45.9872C223.766 46.1851 224.369 46.2841 225.07 46.2841C225.574 46.2841 226.105 46.2391 226.663 46.1491C227.238 46.0412 227.67 45.9512 227.958 45.8793L229.955 55.4062C229.326 55.5862 228.435 55.8111 227.283 56.081C226.15 56.3509 224.791 56.5218 223.208 56.5938C220.113 56.7377 217.46 56.3778 215.246 55.5142C213.051 54.6326 211.369 53.2652 210.2 51.4119C209.048 49.5587 208.49 47.2287 208.526 44.4219V4.61364ZM252.261 0.727271H268.805L282.839 34.9489H283.487L297.521 0.727271H314.065V56H301.057V22.0483H300.598L287.32 55.6491H279.007L265.729 21.8594H265.27V56H252.261V0.727271ZM341.776 56.7827C337.44 56.7827 333.697 55.928 330.549 54.2188C327.418 52.4915 325.007 50.0355 323.316 46.8509C321.642 43.6482 320.806 39.8428 320.806 35.4347C320.806 31.1525 321.651 27.41 323.343 24.2074C325.034 20.9867 327.418 18.4858 330.495 16.7045C333.571 14.9053 337.197 14.0057 341.371 14.0057C344.322 14.0057 347.021 14.4645 349.468 15.3821C351.915 16.2997 354.029 17.6581 355.81 19.4574C357.591 21.2566 358.977 23.4787 359.966 26.1236C360.956 28.7505 361.451 31.7642 361.451 35.1648V38.4574H325.421V30.7926H349.171C349.153 29.3892 348.82 28.1387 348.172 27.0412C347.525 25.9437 346.634 25.089 345.5 24.4773C344.385 23.8475 343.098 23.5327 341.641 23.5327C340.166 23.5327 338.843 23.8655 337.674 24.5312C336.504 25.179 335.578 26.0696 334.894 27.2031C334.21 28.3187 333.85 29.5871 333.814 31.0085V38.8082C333.814 40.4995 334.147 41.9839 334.813 43.2614C335.479 44.5208 336.423 45.5014 337.647 46.2031C338.87 46.9048 340.328 47.2557 342.019 47.2557C343.188 47.2557 344.25 47.0937 345.203 46.7699C346.157 46.446 346.976 45.9692 347.659 45.3395C348.343 44.7098 348.856 43.9361 349.198 43.0185L361.316 43.3693C360.812 46.0862 359.705 48.4522 357.996 50.4673C356.305 52.4645 354.083 54.0208 351.33 55.1364C348.577 56.2339 345.392 56.7827 341.776 56.7827ZM375.613 56.7827C373.67 56.7827 372.005 56.099 370.62 54.7315C369.253 53.3641 368.578 51.7088 368.596 49.7656C368.578 47.8584 369.253 46.2301 370.62 44.8807C372.005 43.5133 373.67 42.8295 375.613 42.8295C377.448 42.8295 379.067 43.5133 380.471 44.8807C381.892 46.2301 382.612 47.8584 382.63 49.7656C382.612 51.0611 382.27 52.2396 381.604 53.3011C380.957 54.3627 380.102 55.2083 379.04 55.8381C377.997 56.4678 376.854 56.7827 375.613 56.7827Z" fill="black"/>
</svg>
