<svg width="26" height="25" viewBox="0 0 26 25" fill="none" xmlns="http://www.w3.org/2000/svg">
<path d="M13 0C5.8175 0 0 5.59375 0 12.5C0 18.0313 3.72125 22.7031 8.88875 24.3594C9.53875 24.4688 9.7825 24.0938 9.7825 23.7656C9.7825 23.4688 9.76625 22.4844 9.76625 21.4375C6.5 22.0156 5.655 20.6719 5.395 19.9688C5.24875 19.6094 4.615 18.5 4.0625 18.2031C3.6075 17.9688 2.9575 17.3906 4.04625 17.375C5.07 17.3594 5.80125 18.2813 6.045 18.6563C7.215 20.5469 9.08375 20.0156 9.83125 19.6875C9.945 18.875 10.2862 18.3281 10.66 18.0156C7.7675 17.7031 4.745 16.625 4.745 11.8438C4.745 10.4844 5.24875 9.35938 6.0775 8.48438C5.9475 8.17188 5.4925 6.89063 6.2075 5.17188C6.2075 5.17188 7.29625 4.84375 9.7825 6.45313C10.8225 6.17188 11.9275 6.03125 13.0325 6.03125C14.1375 6.03125 15.2425 6.17188 16.2825 6.45313C18.7688 4.82813 19.8575 5.17188 19.8575 5.17188C20.5725 6.89063 20.1175 8.17188 19.9875 8.48438C20.8163 9.35938 21.32 10.4688 21.32 11.8438C21.32 16.6406 18.2812 17.7031 15.3888 18.0156C15.86 18.4063 16.2663 19.1563 16.2663 20.3281C16.2663 22 16.25 23.3438 16.25 23.7656C16.25 24.0938 16.4938 24.4844 17.1438 24.3594C19.7246 23.5219 21.9673 21.9271 23.556 19.7996C25.1448 17.6722 25.9995 15.1191 26 12.5C26 5.59375 20.1825 0 13 0Z" fill="black" fill-opacity="0.5"/>
</svg>
