<svg width="28" height="24" viewBox="0 0 28 24" fill="none" xmlns="http://www.w3.org/2000/svg">
<g clip-path="url(#clip0_306_17)">
<path d="M23.2267 3.51632C22.0043 2.39732 20.5483 1.51009 18.9436 0.906384C17.3389 0.30268 15.6175 -0.00541347 13.8801 7.198e-05C6.60006 7.198e-05 0.666725 5.37715 0.666725 11.9747C0.666725 14.0892 1.28006 16.1434 2.42673 17.9559L0.560059 24.1667L7.56006 22.4992C9.49339 23.4538 11.6667 23.9613 13.8801 23.9613C21.1601 23.9613 27.0934 18.5842 27.0934 11.9867C27.0934 8.78466 25.7201 5.77591 23.2267 3.51632ZM13.8801 21.9313C11.9067 21.9313 9.97339 21.448 8.28006 20.5417L7.88006 20.3242L3.72006 21.3151L4.82673 17.6417L4.56006 17.2672C3.46372 15.6806 2.88158 13.8467 2.88006 11.9747C2.88006 6.48882 7.81339 2.01799 13.8667 2.01799C16.8001 2.01799 19.5601 3.05716 21.6267 4.94216C22.65 5.86528 23.461 6.96329 24.0126 8.17254C24.5642 9.3818 24.8454 10.6782 24.8401 11.9867C24.8667 17.4726 19.9334 21.9313 13.8801 21.9313ZM19.9067 14.488C19.5734 14.343 17.9467 13.618 17.6534 13.5092C17.3467 13.4126 17.1334 13.3642 16.9067 13.6542C16.6801 13.9563 16.0534 14.633 15.8667 14.8263C15.6801 15.0317 15.4801 15.0559 15.1467 14.8988C14.8134 14.7538 13.7467 14.4276 12.4934 13.4126C11.5067 12.6151 10.8534 11.6363 10.6534 11.3342C10.4667 11.0322 10.6267 10.8751 10.8001 10.718C10.9467 10.5851 11.1334 10.3676 11.2934 10.1984C11.4534 10.0292 11.5201 9.89632 11.6267 9.70299C11.7334 9.49757 11.6801 9.32841 11.6001 9.18341C11.5201 9.03841 10.8534 7.56424 10.5867 6.96007C10.3201 6.38007 10.0401 6.45257 9.84006 6.44049H9.20006C8.97339 6.44049 8.62673 6.51299 8.32006 6.81507C8.02673 7.11716 7.17339 7.84216 7.17339 9.31632C7.17339 10.7905 8.36006 12.2163 8.52006 12.4097C8.68006 12.6151 10.8534 15.6359 14.1601 16.9288C14.9467 17.243 15.5601 17.4242 16.0401 17.5572C16.8267 17.7867 17.5467 17.7505 18.1201 17.678C18.7601 17.5934 20.0801 16.953 20.3467 16.2522C20.6267 15.5513 20.6267 14.9592 20.5334 14.8263C20.4401 14.6934 20.2401 14.633 19.9067 14.488Z" fill="black" fill-opacity="0.5"/>
</g>
<defs>
<clipPath id="clip0_306_17">
<rect width="28" height="24" fill="white"/>
</clipPath>
</defs>
</svg>
