<svg width="152" height="152" viewBox="0 0 152 152" fill="none" xmlns="http://www.w3.org/2000/svg">
<g clip-path="url(#clip0_330_12)">
<mask id="mask0_330_12" style="mask-type:alpha" maskUnits="userSpaceOnUse" x="0" y="0" width="152" height="152">
<path d="M76 152C117.974 152 152 117.974 152 76C152 34.0264 117.974 0 76 0C34.0264 0 0 34.0264 0 76C0 117.974 34.0264 152 76 152Z" fill="black"/>
</mask>
<g mask="url(#mask0_330_12)">
<path d="M76 152C117.974 152 152 117.974 152 76C152 34.0264 117.974 0 76 0C34.0264 0 0 34.0264 0 76C0 117.974 34.0264 152 76 152Z" fill="black"/>
<path d="M126.251 133.017L58.3867 45.6001H45.6001V106.375H55.8294V58.5907L118.221 139.203C121.037 137.319 123.719 135.251 126.251 133.017Z" fill="url(#paint0_linear_330_12)"/>
<path d="M107.244 45.6001H97.1111V106.4H107.244V45.6001Z" fill="url(#paint1_linear_330_12)"/>
</g>
</g>
<defs>
<linearGradient id="paint0_linear_330_12" x1="92.0445" y1="98.3779" x2="122.022" y2="135.533" gradientUnits="userSpaceOnUse">
<stop stop-color="white"/>
<stop offset="1" stop-color="white" stop-opacity="0"/>
</linearGradient>
<linearGradient id="paint1_linear_330_12" x1="102.178" y1="45.6001" x2="102.008" y2="90.2501" gradientUnits="userSpaceOnUse">
<stop stop-color="white"/>
<stop offset="1" stop-color="white" stop-opacity="0"/>
</linearGradient>
<clipPath id="clip0_330_12">
<rect width="152" height="152" fill="white"/>
</clipPath>
</defs>
</svg>
