<svg width="26" height="25" viewBox="0 0 26 25" fill="none" xmlns="http://www.w3.org/2000/svg">
<g clip-path="url(#clip0_305_15)">
<path d="M13 0C9.47212 0 9.0285 0.015625 7.64238 0.075C6.25625 0.1375 5.31212 0.346875 4.485 0.65625C3.6174 0.97003 2.83155 1.46223 2.18238 2.09844C1.52112 2.72296 1.0093 3.4785 0.6825 4.3125C0.36075 5.10625 0.141375 6.01562 0.078 7.34375C0.01625 8.67969 0 9.10469 0 12.5016C0 15.8953 0.01625 16.3203 0.078 17.6531C0.143 18.9844 0.36075 19.8922 0.6825 20.6875C1.01562 21.5094 1.45925 22.2062 2.18238 22.9016C2.90388 23.5969 3.62863 24.025 4.48338 24.3437C5.31213 24.6531 6.25463 24.8641 7.63913 24.925C9.02688 24.9844 9.46887 25 13 25C16.5311 25 16.9715 24.9844 18.3593 24.925C19.7421 24.8625 20.6895 24.6531 21.5166 24.3437C22.3837 24.0298 23.169 23.5376 23.8176 22.9016C24.5407 22.2062 24.9844 21.5094 25.3175 20.6875C25.6376 19.8922 25.857 18.9844 25.922 17.6531C25.9837 16.3203 26 15.8953 26 12.5C26 9.10469 25.9837 8.67969 25.922 7.34531C25.857 6.01563 25.6376 5.10625 25.3175 4.3125C24.9907 3.47848 24.4789 2.72293 23.8176 2.09844C23.1687 1.46199 22.3827 0.969758 21.515 0.65625C20.6862 0.346875 19.7405 0.135938 18.3576 0.075C16.9699 0.015625 16.5295 0 12.9968 0H13.0016H13ZM11.8349 2.25313H13.0016C16.4726 2.25313 16.8837 2.26406 18.2536 2.325C19.5211 2.37969 20.2101 2.58438 20.6684 2.75469C21.2745 2.98125 21.7084 3.25312 22.1634 3.69062C22.6184 4.12812 22.8995 4.54375 23.1351 5.12813C23.3139 5.56719 23.5251 6.22969 23.582 7.44844C23.6454 8.76563 23.6584 9.16094 23.6584 12.4969C23.6584 15.8328 23.6454 16.2297 23.582 17.5469C23.5251 18.7656 23.3123 19.4266 23.1351 19.8672C22.9267 20.4099 22.594 20.9007 22.1617 21.3031C21.7067 21.7406 21.2745 22.0109 20.6668 22.2375C20.2118 22.4094 19.5227 22.6125 18.2536 22.6688C16.8837 22.7281 16.4726 22.7422 13.0016 22.7422C9.53063 22.7422 9.11788 22.7281 7.748 22.6688C6.4805 22.6125 5.79312 22.4094 5.33487 22.2375C4.77019 22.0374 4.25933 21.7181 3.83987 21.3031C3.40722 20.9001 3.07405 20.4088 2.86488 19.8656C2.68775 19.4266 2.47488 18.7641 2.418 17.5453C2.35625 16.2281 2.34325 15.8328 2.34325 12.4937C2.34325 9.15625 2.35625 8.7625 2.418 7.44531C2.4765 6.22656 2.68775 5.56406 2.8665 5.12344C3.10213 4.54063 3.38487 4.12344 3.83987 3.68594C4.29487 3.24844 4.72712 2.97813 5.33487 2.75156C5.79312 2.57969 6.4805 2.37656 7.748 2.32031C8.94725 2.26719 9.412 2.25156 11.8349 2.25V2.25313ZM19.9404 4.32812C19.7355 4.32812 19.5327 4.36692 19.3434 4.44231C19.1541 4.51769 18.9821 4.62818 18.8373 4.76746C18.6924 4.90675 18.5775 5.07211 18.4991 5.2541C18.4207 5.43609 18.3804 5.63114 18.3804 5.82813C18.3804 6.02511 18.4207 6.22016 18.4991 6.40215C18.5775 6.58414 18.6924 6.7495 18.8373 6.88879C18.9821 7.02807 19.1541 7.13856 19.3434 7.21394C19.5327 7.28933 19.7355 7.32813 19.9404 7.32813C20.3541 7.32813 20.7509 7.17009 21.0435 6.88879C21.336 6.60748 21.5004 6.22595 21.5004 5.82813C21.5004 5.4303 21.336 5.04877 21.0435 4.76746C20.7509 4.48616 20.3541 4.32812 19.9404 4.32812ZM13.0016 6.08125C12.1161 6.06797 11.2367 6.2242 10.4146 6.54085C9.59248 6.85749 8.84409 7.32824 8.21299 7.92566C7.5819 8.52309 7.08072 9.23526 6.73862 10.0207C6.39652 10.8062 6.22034 11.6492 6.22034 12.5008C6.22034 13.3523 6.39652 14.1954 6.73862 14.9808C7.08072 15.7663 7.5819 16.4785 8.21299 17.0759C8.84409 17.6733 9.59248 18.1441 10.4146 18.4607C11.2367 18.7774 12.1161 18.9336 13.0016 18.9203C14.7543 18.894 16.4258 18.2061 17.6556 17.0051C18.8853 15.804 19.5746 14.1862 19.5746 12.5008C19.5746 10.8154 18.8853 9.19752 17.6556 7.99648C16.4258 6.79545 14.7543 6.10754 13.0016 6.08125ZM13.0016 8.33281C14.151 8.33281 15.2534 8.77185 16.0661 9.55335C16.8789 10.3349 17.3355 11.3948 17.3355 12.5C17.3355 13.6052 16.8789 14.6651 16.0661 15.4466C15.2534 16.2281 14.151 16.6672 13.0016 16.6672C11.8522 16.6672 10.7499 16.2281 9.93711 15.4466C9.12435 14.6651 8.66775 13.6052 8.66775 12.5C8.66775 11.3948 9.12435 10.3349 9.93711 9.55335C10.7499 8.77185 11.8522 8.33281 13.0016 8.33281Z" fill="black" fill-opacity="0.5"/>
</g>
<defs>
<clipPath id="clip0_305_15">
<rect width="26" height="25" fill="white"/>
</clipPath>
</defs>
</svg>
