<svg width="189" height="189" viewBox="0 0 189 189" fill="none" xmlns="http://www.w3.org/2000/svg">
<g clip-path="url(#clip0_527_48)">
<mask id="mask0_527_48" style="mask-type:alpha" maskUnits="userSpaceOnUse" x="0" y="0" width="189" height="189">
<path d="M94.5 189C146.691 189 189 146.691 189 94.5C189 42.3091 146.691 0 94.5 0C42.3091 0 0 42.3091 0 94.5C0 146.691 42.3091 189 94.5 189Z" fill="black"/>
</mask>
<g mask="url(#mask0_527_48)">
<path d="M94.5 189C146.691 189 189 146.691 189 94.5C189 42.3091 146.691 0 94.5 0C42.3091 0 0 42.3091 0 94.5C0 146.691 42.3091 189 94.5 189Z" fill="black"/>
<path d="M156.984 165.396L72.5993 56.7H56.7002V132.269H69.4195V72.8528L146.999 173.087C150.5 170.745 153.835 168.173 156.984 165.396Z" fill="url(#paint0_linear_527_48)"/>
<path d="M133.35 56.7H120.75V132.3H133.35V56.7Z" fill="url(#paint1_linear_527_48)"/>
</g>
</g>
<defs>
<linearGradient id="paint0_linear_527_48" x1="114.45" y1="122.325" x2="151.725" y2="168.525" gradientUnits="userSpaceOnUse">
<stop stop-color="white"/>
<stop offset="1" stop-color="white" stop-opacity="0"/>
</linearGradient>
<linearGradient id="paint1_linear_527_48" x1="127.05" y1="56.7" x2="126.839" y2="112.219" gradientUnits="userSpaceOnUse">
<stop stop-color="white"/>
<stop offset="1" stop-color="white" stop-opacity="0"/>
</linearGradient>
<clipPath id="clip0_527_48">
<rect width="189" height="189" fill="white"/>
</clipPath>
</defs>
</svg>
